<svg xmlns="http://www.w3.org/2000/svg" width="500" height="500" style=""><rect id="backgroundrect" width="100%" height="100%" x="0" y="0" fill="none" stroke="none"/><defs><style>.cls-1{fill:#9ab3da;}.cls-2{fill:#404b7c;}.cls-3{fill:#e9f3ff;}.cls-4{fill:#ecbdbb;}.cls-5{fill:#f68d88;}.cls-6{fill:#fff;}</style></defs><title>Ideation Session Whiteboarding</title><g class="currentLayer" style=""><title>Layer 1</title><path class="cls-1" d="M106.86,437H16.35a0.5,0.5,0,0,1,0-1h90.51A0.5,0.5,0,0,1,106.86,437Z" id="svg_1"/><path class="cls-1" d="M192.17,437H130.8a0.5,0.5,0,0,1,0-1h61.36A0.5,0.5,0,1,1,192.17,437Z" id="svg_2"/><path class="cls-1" d="M154.91,448.67H93.55a0.5,0.5,0,1,1,0-1h61.36A0.5,0.5,0,1,1,154.91,448.67Z" id="svg_5"/><path class="cls-1" d="M265.55,270.55c-58.45,0-99.89-5.07-107.6-6.08l-6.32-.83-0.52-6.35c-1.41-17.36-3.09-45-3.09-78.18s1.68-60.82,3.09-78.18l0.52-6.35,6.32-.83c7.71-1,49.15-6.08,107.6-6.08s99.89,5.07,107.6,6.08l6.32,0.83,0.52,6.35c1.41,17.36,3.09,45,3.09,78.18s-1.68,60.82-3.09,78.18l-0.52,6.35-6.32.83C365.44,265.48,324,270.55,265.55,270.55Z" id="svg_7"/><path class="cls-2" d="M265.55,98.26h27.6a113.76,113.76,0,0,0-3.45-13.15s-11.34-.66-24.15-0.66-24.15.66-24.15,0.66a113.76,113.76,0,0,0-3.45,13.15h27.6Z" id="svg_8"/><path class="cls-3" d="M372.13,256.65c-7.27,1-48.72,6-106.57,6s-99.31-5.06-106.57-6c-1.54-18.93-3.07-45.76-3.07-77.54s1.53-58.61,3.07-77.54c7.27-1,48.72-6,106.57-6s99.31,5.06,106.57,6c1.54,18.93,3.07,45.76,3.07,77.54S373.66,237.72,372.13,256.65Z" id="svg_9"/><path class="cls-1" d="M269,130s-1.63,14.69,5,21.36H249.51c-6.67-6.67-5-21.36-5-21.36H269Z" id="svg_10"/><rect class="cls-2" x="254.72000122070312" y="125.25" width="4.03000020980835" height="6.75" id="svg_11"/><path class="cls-1" d="M304.41,111.36s-1.63,14.69,5,21.36H284.89c-6.67-6.67-5-21.36-5-21.36h24.56Z" id="svg_12"/><path class="cls-1" d="M348.695715341568,167.07428680419923 s-1.6300000000000003,14.69 5,21.36 H329.175715341568 c-6.67,-6.67 -5,-21.36 -5,-21.36 h24.56 z" id="svg_126"/><path class="cls-1" d="M350.8385719394684,211.36000190734865 s-1.6300000000000003,14.69 5,21.36 H331.31857193946837 c-6.67,-6.67 -5,-21.36 -5,-21.36 h24.56 z" id="svg_125"/><rect class="cls-2" x="290.1000061035156" y="106.58000183105469" width="4.03000020980835" height="6.75" id="svg_13"/><rect class="cls-2" x="335.8143005371094" y="162.29428100585938" width="4.03000020980835" height="6.75" id="svg_127"/><rect class="cls-2" x="337.95715713500977" y="206.5799961090088" width="4.03000020980835" height="6.75" id="svg_128"/><rect class="cls-1" x="329.07000732421875" y="108.37000274658203" width="28.81999969482422" height="5.449999809265137" rx="2.6600000858306885" ry="2.6600000858306885" id="svg_14"/><rect class="cls-1" x="329.07000732421875" y="118.27999877929688" width="28.81999969482422" height="5.449999809265137" rx="2.6600000858306885" ry="2.6600000858306885" id="svg_15"/><rect class="cls-2" x="177.75" y="114.33999633789062" width="55.369998931884766" height="77.08999633789062" rx="5.21999979019165" ry="5.21999979019165" id="svg_16"/><rect class="cls-3" x="185.4199981689453" y="165.08999633789062" width="40.040000915527344" height="19.600000381469727" rx="2.609999895095825" ry="2.609999895095825" id="svg_17"/><rect class="cls-1" x="196.66000366210938" y="153.17999267578125" width="8.670000076293945" height="8.670000076293945" rx="1.190000057220459" ry="1.190000057220459" id="svg_18"/><rect class="cls-1" x="211.30999755859375" y="142.1300048828125" width="8.670000076293945" height="19.719999313354492" rx="1.190000057220459" ry="1.190000057220459" id="svg_19"/><path class="cls-1" d="M211.31,235a0.5,0.5,0,0,1-.5-0.5V223.13a0.5,0.5,0,0,1,.5-0.5h21.2v-21.2a0.5,0.5,0,0,1,.5-0.5h21.2v-21.2a0.5,0.5,0,0,1,.5-0.5h21.2V158a0.5,0.5,0,0,1,.5-0.5h21.7a0.5,0.5,0,0,1,0,1h-21.2v21.2a0.5,0.5,0,0,1-.5.5h-21.2v21.2a0.5,0.5,0,0,1-.5.5h-21.2v21.2a0.5,0.5,0,0,1-.5.5h-21.2v10.91A0.5,0.5,0,0,1,211.31,235Z" id="svg_20"/><rect class="cls-2" x="216.85000610351562" y="227.30999755859375" width="10.40999984741211" height="10.40999984741211" id="svg_21"/><rect class="cls-2" x="238.66000366210938" y="207.1999969482422" width="10.40999984741211" height="30.520000457763672" id="svg_22"/><rect class="cls-2" x="260.4700012207031" y="185.42999267578125" width="10.40999984741211" height="52.290000915527344" id="svg_23"/><rect class="cls-2" x="282.07000732421875" y="163.25999450683594" width="10.40999984741211" height="74.45999908447266" id="svg_24"/><path class="cls-1" d="M309.92,246.93H177.64a0.5,0.5,0,0,1,0-1H309.92A0.5,0.5,0,1,1,309.92,246.93Z" id="svg_25"/><path class="cls-3" d="M444.41,160.69a48.88,48.88,0,1,0,48.87,48.87A48.88,48.88,0,0,0,444.41,160.69Zm0,81.17a32.29,32.29,0,1,1,32.29-32.3A32.29,32.29,0,0,1,444.41,241.86Z" id="svg_26"/><circle class="cls-3" cx="444.4100036621094" cy="209.57000732421875" r="14.420000076293945" id="svg_27"/><path class="cls-1" d="M444.41,174a35.54,35.54,0,1,1-35.54,35.54H398.3a46.11,46.11,0,1,0,46.11-46.11V174h0Z" id="svg_28"/><path class="cls-2" d="M47.31,347.25H47.2s-0.74-.16-2-0.51a0.5,0.5,0,0,1,.28-1c1.19,0.34,1.89.5,1.9,0.5A0.5,0.5,0,0,1,47.31,347.25Z" id="svg_29"/><path class="cls-2" d="M345.44,388.55a0.5,0.5,0,0,1,0-1q2,0,4-.07a0.51,0.51,0,0,1,.52.48,0.5,0.5,0,0,1-.48.52q-2,.06-4,0.07h0Zm-4,0h0q-2,0-4-.14a0.5,0.5,0,0,1-.48-0.52,0.49,0.49,0,0,1,.52-0.48q2,0.09,4,.13A0.5,0.5,0,0,1,341.46,388.51Zm12-.22a0.5,0.5,0,0,1,0-1q2-.12,4-0.3a0.51,0.51,0,0,1,.54.45,0.5,0.5,0,0,1-.45.54q-2,.18-4,0.3h0Zm-19.92-.14h0q-2-.14-4-0.33a0.5,0.5,0,0,1-.45-0.54,0.51,0.51,0,0,1,.54-0.45q2,0.19,4,.33A0.5,0.5,0,0,1,333.49,388.15Zm27.86-.57a0.5,0.5,0,0,1-.06-1q2-.24,3.93-0.54a0.5,0.5,0,0,1,.15,1q-2,.3-4,0.54h-0.06Zm-35.8-.17H325.5q-2-.23-4-0.51a0.5,0.5,0,0,1-.43-0.56,0.51,0.51,0,0,1,.56-0.43q2,0.27,3.94.5A0.5,0.5,0,0,1,325.55,387.4Zm43.68-1a0.5,0.5,0,0,1-.09-1q2-.36,3.89-0.79a0.5,0.5,0,0,1,.21,1q-1.95.43-3.92,0.79h-0.09Zm-51.57-.07h-0.08q-2-.31-3.94-0.67a0.5,0.5,0,1,1,.18-1q2,0.35,3.92.67A0.5,0.5,0,0,1,317.66,386.31Zm-7.85-1.41h-0.1q-1.95-.39-3.91-0.82a0.5,0.5,0,0,1,.21-1q2,0.43,3.89.82A0.5,0.5,0,0,1,309.81,384.9Zm67.21-.24a0.5,0.5,0,0,1-.12-1c1.28-.33,2.57-0.68,3.83-1.05a0.5,0.5,0,0,1,.28,1c-1.28.38-2.58,0.73-3.87,1.06Zm-75-1.47H301.9q-1.94-.46-3.88-1a0.5,0.5,0,0,1,.25-1q1.94,0.5,3.86,1A0.5,0.5,0,0,1,302,383.19Zm82.66-.78a0.5,0.5,0,0,1-.16-1c1.24-.41,2.5-0.86,3.74-1.33a0.5,0.5,0,0,1,.35.94c-1.25.47-2.52,0.92-3.78,1.34Zm-90.38-1.2-0.13,0q-1.92-.53-3.84-1.09a0.5,0.5,0,1,1,.28-1q1.92,0.56,3.83,1.08A0.5,0.5,0,0,1,294.3,381.21Zm97.85-1.61a0.5,0.5,0,0,1-.19-1c1.22-.51,2.44-1.05,3.63-1.6a0.5,0.5,0,0,1,.42.91c-1.2.56-2.43,1.1-3.67,1.62A0.5,0.5,0,0,1,392.14,379.61ZM286.64,379l-0.15,0q-1.9-.59-3.81-1.21a0.5,0.5,0,1,1,.31-1l3.79,1.2A0.5,0.5,0,0,1,286.64,379Zm-7.58-2.46-0.16,0-3.77-1.32a0.5,0.5,0,1,1,.34-0.94q1.88,0.67,3.76,1.31A0.5,0.5,0,0,1,279.05,376.53Zm120.32-.27a0.5,0.5,0,0,1-.23-0.95c1.17-.6,2.35-1.23,3.49-1.87a0.5,0.5,0,1,1,.49.87c-1.16.65-2.34,1.29-3.53,1.89A0.5,0.5,0,0,1,399.37,376.25Zm-127.83-2.4a0.5,0.5,0,0,1-.17,0l-3.74-1.42a0.5,0.5,0,1,1,.36-0.93q1.86,0.72,3.72,1.41A0.5,0.5,0,0,1,271.54,373.85Zm134.78-1.5a0.5,0.5,0,0,1-.26-0.93c1.12-.69,2.24-1.41,3.34-2.14a0.5,0.5,0,0,1,.56.83c-1.1.74-2.24,1.46-3.37,2.16A0.49,0.49,0,0,1,406.32,372.35ZM264.1,371a0.5,0.5,0,0,1-.19,0l-3.7-1.51a0.5,0.5,0,1,1,.38-0.92l3.68,1.51A0.5,0.5,0,0,1,264.1,371Zm148.84-3.05a0.5,0.5,0,0,1-.29-0.9c1.07-.77,2.13-1.58,3.16-2.39a0.5,0.5,0,0,1,.62.79c-1,.82-2.12,1.63-3.19,2.41A0.5,0.5,0,0,1,412.94,367.92Zm-156.2,0a0.49,0.49,0,0,1-.2,0l-3.66-1.6a0.5,0.5,0,1,1,.41-0.91l3.65,1.59A0.5,0.5,0,0,1,256.74,367.91Zm-7.29-3.24a0.51,0.51,0,0,1-.21,0L245.62,363A0.5,0.5,0,1,1,246,362l3.61,1.68A0.5,0.5,0,0,1,249.45,364.68ZM419.2,363a0.5,0.5,0,0,1-.32-0.88c1-.85,2-1.74,3-2.62a0.5,0.5,0,1,1,.68.74c-1,.9-2,1.79-3,2.65A0.5,0.5,0,0,1,419.2,363Zm-177-1.72a0.5,0.5,0,0,1-.22,0l-3.58-1.76a0.5,0.5,0,1,1,.45-0.9l3.58,1.75A0.5,0.5,0,0,1,242.24,361.28Zm-7.14-3.55a0.5,0.5,0,0,1-.23-0.05l-3.55-1.83a0.5,0.5,0,0,1,.46-0.89l3.54,1.83A0.5,0.5,0,0,1,235.1,357.73Zm190-.12a0.5,0.5,0,0,1-.35-0.86l1.22-1.23q0.79-.8,1.54-1.62a0.5,0.5,0,0,1,.73.68q-0.76.82-1.56,1.64l-1.24,1.24A0.5,0.5,0,0,1,425.08,357.61ZM228,354a0.5,0.5,0,0,1-.24-0.06l-3.51-1.9a0.5,0.5,0,0,1,.48-0.88l3.5,1.89A0.5,0.5,0,0,1,228,354Zm202.45-2.28a0.5,0.5,0,0,1-.38-0.82c0.84-1,1.67-2.06,2.45-3.11a0.5,0.5,0,1,1,.8.6c-0.79,1.06-1.63,2.13-2.48,3.15A0.5,0.5,0,0,1,430.48,351.76ZM221,350.21a0.5,0.5,0,0,1-.24-0.06l-3.48-2a0.5,0.5,0,0,1,.5-0.87l3.47,2A0.5,0.5,0,0,1,221,350.21Zm-6.93-4a0.49,0.49,0,0,1-.25-0.07l-3.44-2a0.5,0.5,0,1,1,.51-0.86l3.43,2A0.5,0.5,0,0,1,214.11,346.26ZM41.59,345.5a0.5,0.5,0,0,1-.17,0c-1.26-.46-2.52-1-3.74-1.49a0.5,0.5,0,1,1,.4-0.92c1.2,0.52,2.44,1,3.68,1.47A0.5,0.5,0,0,1,41.59,345.5Zm393.66-.13a0.5,0.5,0,0,1-.42-0.78c0.73-1.09,1.44-2.22,2.12-3.35a0.5,0.5,0,1,1,.86.51c-0.68,1.14-1.41,2.29-2.14,3.39A0.5,0.5,0,0,1,435.25,345.37Zm-401-3.06a0.49,0.49,0,0,1-.23-0.06c-1.2-.62-2.38-1.28-3.51-2a0.5,0.5,0,0,1,.52-0.85c1.11,0.67,2.27,1.32,3.45,1.93A0.5,0.5,0,0,1,34.27,342.31Zm173-.13a0.5,0.5,0,0,1-.26-0.07l-3.4-2.08a0.5,0.5,0,0,1,.53-0.85l3.4,2.08A0.5,0.5,0,0,1,207.25,342.19Zm232.08-3.65a0.5,0.5,0,0,1-.44-0.74c0.62-1.16,1.21-2.35,1.78-3.54a0.5,0.5,0,0,1,.9.43c-0.57,1.21-1.18,2.41-1.8,3.58A0.5,0.5,0,0,1,439.34,338.53Zm-411.87-.38a0.5,0.5,0,0,1-.29-0.09c-1.1-.8-2.17-1.64-3.16-2.51a0.5,0.5,0,1,1,.66-0.75c1,0.84,2,1.67,3.09,2.45A0.5,0.5,0,0,1,27.47,338.15Zm173-.16a0.5,0.5,0,0,1-.27-0.08l-3.37-2.14a0.5,0.5,0,1,1,.54-0.84l3.36,2.13A0.5,0.5,0,0,1,200.47,338Zm-6.72-4.3a0.5,0.5,0,0,1-.27-0.08l-3.34-2.19a0.5,0.5,0,0,1,.55-0.83l3.33,2.19A0.5,0.5,0,0,1,193.75,333.7Zm-172.28-.79a0.5,0.5,0,0,1-.36-0.16,35.94,35.94,0,0,1-2.6-3.1,0.5,0.5,0,0,1,.8-0.6,34.83,34.83,0,0,0,2.53,3A0.5,0.5,0,0,1,21.47,332.92Zm421.28-1.59a0.5,0.5,0,0,1-.46-0.69c0.51-1.21,1-2.45,1.46-3.69a0.5,0.5,0,0,1,.94.35c-0.46,1.26-1,2.51-1.47,3.73A0.5,0.5,0,0,1,442.75,331.33Zm-255.66-2a0.5,0.5,0,0,1-.28-0.08l-3.3-2.24a0.5,0.5,0,0,1,.56-0.83l3.3,2.24A0.5,0.5,0,0,1,187.1,329.3ZM16.73,326.53a0.5,0.5,0,0,1-.44-0.25,31.47,31.47,0,0,1-1.77-3.64,0.5,0.5,0,1,1,.93-0.38,30.35,30.35,0,0,0,1.72,3.52A0.5,0.5,0,0,1,16.73,326.53Zm163.79-1.73a0.49,0.49,0,0,1-.28-0.09l-0.68-.47-2.6-1.79a0.5,0.5,0,0,1,.56-0.83l2.61,1.8,0.68,0.47A0.5,0.5,0,0,1,180.51,324.8Zm265-.95-0.15,0a0.5,0.5,0,0,1-.32-0.63c0.4-1.24.79-2.52,1.14-3.8a0.5,0.5,0,1,1,1,.27c-0.36,1.29-.75,2.59-1.16,3.84A0.5,0.5,0,0,1,445.52,323.85ZM173.93,320.3a0.5,0.5,0,0,1-.28-0.08l-3.32-2.2a0.5,0.5,0,0,1,.55-0.84l3.33,2.2A0.5,0.5,0,0,1,173.93,320.3ZM13.72,319.18a0.5,0.5,0,0,1-.48-0.37,31.83,31.83,0,0,1-.77-4,0.5,0.5,0,1,1,1-.13,30.72,30.72,0,0,0,.75,3.84,0.5,0.5,0,0,1-.36.61Zm433.95-3h-0.12a0.5,0.5,0,0,1-.37-0.6c0.3-1.27.59-2.57,0.86-3.88a0.5,0.5,0,1,1,1,.2c-0.27,1.31-.56,2.63-0.86,3.91A0.5,0.5,0,0,1,447.67,316.18Zm-280.42-.24a0.5,0.5,0,0,1-.27-0.08l-3.37-2.12a0.5,0.5,0,0,1,.53-0.85l3.38,2.13A0.5,0.5,0,0,1,167.26,315.94Zm-6.77-4.21a0.5,0.5,0,0,1-.26-0.07l-3.42-2a0.5,0.5,0,1,1,.51-0.86q1.71,1,3.43,2A0.5,0.5,0,0,1,160.49,311.73ZM12.69,311.3a0.5,0.5,0,0,1-.5-0.49v-0.38c0-1.13.05-2.3,0.16-3.47l0-.19a0.5,0.5,0,0,1,1,.1l0,0.19c-0.1,1.14-.16,2.28-0.16,3.38v0.36a0.5,0.5,0,0,1-.49.51h0Zm436.56-2.94h-0.08a0.5,0.5,0,0,1-.41-0.58q0.33-2,.59-3.93a0.49,0.49,0,0,1,.56-0.43,0.5,0.5,0,0,1,.43.56q-0.26,2-.59,4A0.5,0.5,0,0,1,449.26,308.36Zm-295.64-.68a0.5,0.5,0,0,1-.25-0.07q-1.74-1-3.47-2a0.5,0.5,0,1,1,.49-0.87q1.73,1,3.48,2A0.5,0.5,0,0,1,153.62,307.68Zm-7-3.88a0.5,0.5,0,0,1-.24-0.06q-1.77-1-3.52-1.87a0.5,0.5,0,0,1,.46-0.89q1.75,0.92,3.53,1.87A0.5,0.5,0,0,1,146.65,303.8ZM13.6,303.41l-0.13,0a0.5,0.5,0,0,1-.35-0.62A24.43,24.43,0,0,1,14.52,299a0.5,0.5,0,1,1,.91.42A23.52,23.52,0,0,0,14.08,303,0.5,0.5,0,0,1,13.6,303.41Zm436.72-3h-0.05a0.5,0.5,0,0,1-.45-0.55q0.2-2,.34-4a0.5,0.5,0,0,1,1,.07q-0.14,2-.35,4A0.5,0.5,0,0,1,450.31,300.45Zm-310.73-.34a0.5,0.5,0,0,1-.22-0.05q-1.79-.9-3.57-1.77a0.5,0.5,0,1,1,.44-0.9q1.78,0.87,3.58,1.77A0.5,0.5,0,0,1,139.58,300.11Zm-7.17-3.49a0.49,0.49,0,0,1-.21,0q-1.82-.85-3.62-1.66A0.5,0.5,0,1,1,129,294q1.8,0.81,3.63,1.66A0.5,0.5,0,0,1,132.41,296.62Zm-115.48-.41a0.5,0.5,0,0,1-.41-0.78,28.83,28.83,0,0,1,2.5-3.19,0.5,0.5,0,0,1,.74.67A27.68,27.68,0,0,0,17.35,296,0.5,0.5,0,0,1,16.93,296.21Zm108.2-2.85a0.5,0.5,0,0,1-.2,0q-1.85-.79-3.67-1.54a0.5,0.5,0,0,1,.38-0.93q1.83,0.75,3.68,1.55A0.5,0.5,0,0,1,125.14,293.36Zm325.75-.86h0a0.5,0.5,0,0,1-.48-0.52q0.09-2,.12-4a0.5,0.5,0,0,1,.5-0.49h0a0.5,0.5,0,0,1,.49.51q0,2-.12,4A0.5,0.5,0,0,1,450.89,292.5Zm-333.13-2.16a0.5,0.5,0,0,1-.18,0q-1.87-.73-3.72-1.41a0.5,0.5,0,1,1,.35-0.94q1.85,0.68,3.74,1.42A0.5,0.5,0,0,1,117.76,290.33Zm-95.52,0a0.5,0.5,0,0,1-.33-0.88,36.85,36.85,0,0,1,3.2-2.46,0.5,0.5,0,1,1,.57.82,35.8,35.8,0,0,0-3.11,2.4A0.5,0.5,0,0,1,22.24,290.29Zm88-2.71-0.16,0q-1.9-.66-3.77-1.27a0.5,0.5,0,0,1,.31-1q1.88,0.61,3.79,1.27A0.5,0.5,0,0,1,110.28,287.58Zm-81.49-1.81a0.5,0.5,0,0,1-.24-0.94c1.15-.64,2.36-1.24,3.61-1.79a0.5,0.5,0,0,1,.41.91c-1.22.54-2.4,1.13-3.53,1.75A0.5,0.5,0,0,1,28.79,285.77Zm73.91-.66-0.15,0q-1.93-.58-3.82-1.11a0.5,0.5,0,1,1,.27-1q1.9,0.53,3.84,1.12A0.5,0.5,0,0,1,102.7,285.11ZM451,284.52a0.5,0.5,0,0,1-.5-0.49q0-2-.1-4a0.5,0.5,0,0,1,.48-0.52,0.51,0.51,0,0,1,.52.48q0.07,1.94.1,4a0.5,0.5,0,0,1-.49.51h0ZM95,283l-0.12,0q-2-.5-3.86-0.94a0.5,0.5,0,1,1,.22-1q1.92,0.44,3.89.94A0.5,0.5,0,0,1,95,283Zm-59-.46a0.5,0.5,0,0,1-.17-1c1.24-.44,2.53-0.86,3.83-1.23a0.5,0.5,0,1,1,.27,1c-1.28.36-2.55,0.77-3.76,1.21Zm51.2-1.33h-0.1q-2-.4-3.9-0.74a0.5,0.5,0,1,1,.17-1q1.94,0.34,3.93.75A0.5,0.5,0,0,1,87.25,281.19Zm-43.54-.86a0.5,0.5,0,0,1-.11-1c1.28-.28,2.61-0.54,3.94-0.75a0.5,0.5,0,1,1,.16,1c-1.31.21-2.62,0.46-3.89,0.74H43.71Zm35.68-.52H79.32q-2-.29-3.94-0.52a0.5,0.5,0,0,1-.44-0.55,0.5,0.5,0,0,1,.55-0.44q2,0.23,4,.52A0.5,0.5,0,0,1,79.4,279.81ZM51.58,279a0.5,0.5,0,0,1-.06-1c1.3-.15,2.65-0.27,4-0.36a0.49,0.49,0,0,1,.53.47,0.5,0.5,0,0,1-.47.53c-1.33.09-2.66,0.21-3.95,0.35H51.58Zm19.9-.15h0c-1.32-.11-2.66-0.2-4-0.27a0.5,0.5,0,0,1-.47-0.52,0.49,0.49,0,0,1,.52-0.47c1.31,0.07,2.66.16,4,.27A0.5,0.5,0,0,1,71.48,278.88Zm-11.95-.38a0.5,0.5,0,0,1,0-1q2,0,4,0A0.5,0.5,0,0,1,64,278a0.52,0.52,0,0,1-.51.49q-2,0-4,0h0Zm391.18-1.94a0.5,0.5,0,0,1-.5-0.47q-0.13-2.08-.3-4a0.5,0.5,0,0,1,.45-0.54,0.51,0.51,0,0,1,.54.45c0.11,1.26.22,2.6,0.31,4a0.5,0.5,0,0,1-.47.53h0ZM450,268.61a0.5,0.5,0,0,1-.5-0.44c-0.17-1.45-.35-2.77-0.52-3.94a0.5,0.5,0,0,1,.42-0.57,0.51,0.51,0,0,1,.57.42c0.17,1.18.35,2.5,0.52,4a0.5,0.5,0,0,1-.44.56H450Z" id="svg_30"/><path class="cls-2" d="M448.81,260.58a0.5,0.5,0,0,1-.49-0.41c-0.23-1.25-.38-1.93-0.38-1.94a0.5,0.5,0,0,1,1-.22s0.16,0.69.39,2a0.5,0.5,0,0,1-.4.58h-0.09Z" id="svg_31"/><path class="cls-1" d="M107.36,48.07V68.49a9.26,9.26,0,0,0,9.25,9.26h3.64v7.5a2,2,0,0,0,3.37,1.39l8.89-8.89h21.6a9.26,9.26,0,0,0,9.26-9.26V48.07a9.26,9.26,0,0,0-9.26-9.26h-37.5A9.26,9.26,0,0,0,107.36,48.07Z" id="svg_32"/><rect class="cls-3" x="117.0199966430664" y="49.63999938964844" width="36.70000076293945" height="4.650000095367432" rx="2.319999933242798" ry="2.319999933242798" id="svg_33"/><rect class="cls-3" x="117.0199966430664" y="60.380001068115234" width="36.70000076293945" height="4.650000095367432" rx="2.319999933242798" ry="2.319999933242798" id="svg_34"/><path class="cls-3" d="M396.52,44.62V65a9.26,9.26,0,0,1-9.25,9.26h-3.64v7.5a2,2,0,0,1-3.37,1.39l-8.89-8.89h-21.6A9.26,9.26,0,0,1,340.51,65V44.62a9.26,9.26,0,0,1,9.26-9.26h37.5A9.26,9.26,0,0,1,396.52,44.62Z" id="svg_35"/><rect class="cls-1" x="1087.1800537109375" y="143.20999145507812" width="36.70000076293945" height="4.650000095367432" rx="2.319999933242798" ry="2.319999933242798" transform="rotate(180 737.02001953125,97.0199966430664) " id="svg_36"/><rect class="cls-1" x="1087.1800537109375" y="175.42999267578125" width="36.70000076293945" height="4.650000095367432" rx="2.319999933242798" ry="2.319999933242798" transform="rotate(-180 737.02001953125,118.5) " id="svg_37"/><path class="cls-3" d="M518.3099969482422,-62.220001220703125 h1.9300000000000002 a2.37,2.37 0 0 1 2.37,2.37 v1.6900000000000002 a2.37,2.37 0 0 1 -2.37,2.37 h-1.9300000000000002 a2.37,2.37 0 0 1 -2.37,-2.37 V-59.82000122070312 A2.38,2.38 0 0 1 518.3099969482422,-62.220001220703125 z" transform="rotate(26.149999618530273 94.69999694824212,-175.22000122070312) " id="svg_38"/><path class="cls-1" d="M512.6599978637696,-72.64999877929688 h14.36 a0,0 0 0 1 0,0 v10.06 a2.37,2.37 0 0 1 -2.37,2.37 h-9.61 a2.37,2.37 0 0 1 -2.37,-2.37 V-72.64999877929688 A0,0 0 0 1 512.6599978637696,-72.64999877929688 z" transform="rotate(26.149999618530273 92.48999786376946,-177.02999877929685) " id="svg_39"/><path class="cls-3" d="M421.2,106l14.44,3.2a1,1,0,0,0,.44-2L421.64,104a1,1,0,0,0-.44,2" id="svg_40"/><path class="cls-3" d="M419.18,110.08l15.67,3.48a1,1,0,0,0,.44-2l-15.67-3.48a1,1,0,0,0-.44,2" id="svg_41"/><path class="cls-3" d="M418.77,114.55l14.06,3.12a1,1,0,0,0,.44-2l-14.06-3.12a1,1,0,0,0-.44,2" id="svg_42"/><circle class="cls-1" cx="601.219970703125" cy="533.0799560546875" r="18.770000457763672" transform="rotate(-63.849998474121094 163.7899932861328,443.0199890136719) " id="svg_43"/><path class="cls-3" d="M436.81,103.08a0.5,0.5,0,0,1,0-1c3.71-.29,6.93-3.85,7.89-7.13,0.8-2.72.14-5.13-1.81-6.62a5.27,5.27,0,0,0-3.57-1.25c0.3,2.82-1.18,5.75-2.85,6.65a1.92,1.92,0,0,1-2.4-.3c-1-1-.54-3.35,1.06-5.17a6.41,6.41,0,0,1,3-2,4.08,4.08,0,0,0-3.42-2.69c-2.4-.28-4.7,1.45-6.13,4.63a10.43,10.43,0,0,0,1.87,11.74,0.5,0.5,0,0,1-.68.73,11.47,11.47,0,0,1-2.1-12.88c1.62-3.59,4.31-5.53,7.16-5.21a5.08,5.08,0,0,1,4.29,3.5,6.25,6.25,0,0,1,4.36,1.44c2.3,1.75,3.09,4.55,2.17,7.69-1.23,4.18-5,7.56-8.77,7.85h0Zm1.49-15.81a5.61,5.61,0,0,0-2.45,1.65c-1.31,1.5-1.66,3.25-1.1,3.81a0.92,0.92,0,0,0,1.22.12C437.16,92.21,438.55,89.8,438.3,87.27Z" id="svg_44"/><rect class="cls-3" x="48.21999740600586" y="143.88999938964844" width="4.329999923706055" height="4.179999828338623" rx="2.0899999141693115" ry="2.0899999141693115" transform="rotate(-18.850000381469727 -32.15999984741213,32.7400016784668) " id="svg_45"/><path class="cls-1" d="M45.60000045776367,137.46000061035156 h9.3 a0,0 0 0 1 0,0 V143.11000061035156 a2.37,2.37 0 0 1 -2.37,2.37 H48.02000045776367 A2.37,2.37 0 0 1 45.60000045776367,143.11000061035156 v-5.68 A0,0 0 0 1 45.60000045776367,137.46000061035156 z" transform="rotate(-18.850000381469727 -30.97999954223634,32.11000061035155) " id="svg_46"/><path class="cls-3" d="M76.29,110.08l8.08-5.15a0.66,0.66,0,0,0-.71-1.11L75.58,109a0.66,0.66,0,0,0,.71,1.11" id="svg_47"/><path class="cls-3" d="M77.25,112.89L86,107.3a0.66,0.66,0,0,0-.71-1.11l-8.78,5.59a0.66,0.66,0,0,0,.71,1.11" id="svg_48"/><path class="cls-3" d="M79.11,115.12l7.87-5a0.66,0.66,0,0,0-.71-1.11l-7.87,5a0.66,0.66,0,0,0,.71,1.11" id="svg_49"/><circle class="cls-1" cx="49.730003356933594" cy="125.15999603271484" r="12.15999984741211" transform="rotate(-18.850000381469727 -26.709999084472678,29.809999465942376) " id="svg_50"/><path class="cls-3" d="M77.75,103.91a7.61,7.61,0,0,1-7-5.06c-0.93-2.46-.57-4.66.95-5.87a3.48,3.48,0,0,1,3.64-.44A4.27,4.27,0,0,1,78,91.25a4.55,4.55,0,0,1,4.7,2.62c1.39,2.54,1.2,5.9-.44,7.81a0.5,0.5,0,0,1-.76-0.65c1.52-1.77,1.36-4.79.33-6.69a3.62,3.62,0,0,0-3.68-2.11,3.34,3.34,0,0,0-2,.88,4.74,4.74,0,0,1,1.65,4.42,1.41,1.41,0,0,1-1.4,1.08h0c-1.17,0-2-1.54-2.06-3a4.41,4.41,0,0,1,.4-2.22,2.48,2.48,0,0,0-2.45.39c-1.17.92-1.4,2.69-.64,4.73a6.57,6.57,0,0,0,6.07,4.41,0.49,0.49,0,0,1,.52.48,0.5,0.5,0,0,1-.48.52h0ZM75.62,94a3.51,3.51,0,0,0-.26,1.58c0.08,1.25.7,2.08,1.07,2.09h0a0.43,0.43,0,0,0,.44-0.38A3.84,3.84,0,0,0,75.62,94Z" id="svg_51"/><path class="cls-3" d="M31.68,119l1.29-.17a11.07,11.07,0,0,0,9.64-9.24l0.18-1.24L43,109.59a11.07,11.07,0,0,0,9.64,9.24L53.9,119l-1.29.17A11.07,11.07,0,0,0,43,128.42l-0.18,1.24-0.18-1.24A11.07,11.07,0,0,0,33,119.18Z" id="svg_52"/><path class="cls-3" d="M31.68,262.1l0.81-.11a7,7,0,0,0,6-5.8l0.11-.78,0.11,0.78a7,7,0,0,0,6,5.8l0.81,0.11-0.81.11a7,7,0,0,0-6,5.8l-0.11.78L38.54,268a7,7,0,0,0-6-5.8Z" id="svg_53"/><path class="cls-1" d="M294.87,292.63l0.81-.11a7,7,0,0,0,6-5.8l0.11-.78,0.11,0.78a7,7,0,0,0,6,5.8l0.81,0.11-0.81.11a7,7,0,0,0-6,5.8l-0.11.78-0.11-.78a7,7,0,0,0-6-5.8Z" id="svg_54"/><path class="cls-1" d="M422.7271472167969,286.9157131958008 l0.81,-0.11000000000000003 a7,7 0 0 0 6,-5.8 l0.11000000000000003,-0.78 l0.11000000000000003,0.78 a7,7 0 0 0 6,5.8 l0.81,0.11000000000000003 l-0.81,0.11000000000000003 a7,7 0 0 0 -6,5.8 l-0.11000000000000003,0.78 l-0.11000000000000003,-0.78 a7,7 0 0 0 -6,-5.8 z" id="svg_4"/><path class="cls-3" d="M388.57,148.19l1-.13a8.49,8.49,0,0,0,7.39-7.09l0.14-1,0.14,1a8.49,8.49,0,0,0,7.39,7.09l1,0.13-1,.13a8.49,8.49,0,0,0-7.39,7.09l-0.14,1-0.14-1a8.49,8.49,0,0,0-7.39-7.09Z" id="svg_55"/><circle class="cls-1" cx="138.2100067138672" cy="105.27999877929688" r="2.759999990463257" id="svg_56"/><circle class="cls-3" cx="157.8800048828125" cy="277.20001220703125" r="2.0799999237060547" id="svg_57"/><circle class="cls-1" cx="167.33999633789062" cy="291.7799987792969" r="4.809999942779541" id="svg_58"/><circle class="cls-1" cx="356.6257019042969" cy="365.3514404296875" r="4.809999942779541" id="svg_3"/><circle class="cls-3" cx="306.44000244140625" cy="313.57000732421875" r="1.600000023841858" id="svg_59"/><circle class="cls-3" cx="391.04998779296875" cy="102.68000030517578" r="2.240000009536743" id="svg_61"/><path class="cls-4" d="M153.19,392.3l-1.55,10-1.57,10.07c-3,2-7.82.13-7.82,0.13l0.55-13.12,0.29-7.08h10.1Z" id="svg_62"/><path class="cls-2" d="M153.19,392.3l-1.55,10c-4.22-.54-7-1.64-8.84-2.92l0.29-7.08h10.1Z" id="svg_63"/><path class="cls-1" d="M173.08,436.53H136.72s0-1.56.35-4.1c0.63-5,1.06-12.54,4.11-20.95a26.31,26.31,0,0,0,10.42.22,40.34,40.34,0,0,0,6.41,7.87s2.78,0.88,7.41,4.43S173.5,433.47,173.08,436.53Z" id="svg_64"/><ellipse class="cls-2" cx="-155.57998657226562" cy="883.77001953125" rx="4.050000190734863" ry="2.559999942779541" transform="rotate(-76.44999694824219 -299.42999267578125,462.4599914550781) " id="svg_65"/><path class="cls-2" d="M153,424.41a0.5,0.5,0,0,1-.3-0.1c-4.82-3.6-7.26-10.76-7.36-11.06a0.5,0.5,0,0,1,.95-0.32c0,0.07,2.45,7.17,7,10.58A0.5,0.5,0,0,1,153,424.41Z" id="svg_66"/><path class="cls-2" d="M169.06,421.93c-4.63-3.55-11.06-2.35-11.06-2.35-8.3,3.24-7.58,12.86-7.58,12.86H137.07c-0.32,2.54-.35,4.1-0.35,4.1h36.36C173.5,433.47,173.68,425.48,169.06,421.93Z" id="svg_67"/><path class="cls-5" d="M168.76,331.73c-3.87,22-12.8,63.1-12.8,63.1a16.17,16.17,0,0,1-3.37,1.39,18.58,18.58,0,0,1-9.65.06,28.09,28.09,0,0,1-9.25-4.17c0.57-15,4.49-63.51,4.49-63.51s-19.42-17.09-31.28-29.74a93.56,93.56,0,0,1-6.46-7.51c-0.67-.9-1.31-1.84-1.88-2.79-7-11.36-7.44-25.14-.88-31.11,13.34-12.13,29.81,5.65,29.81,5.65s26.77,30.62,38.08,46.78c2.94,4.21,4.85,7.43,4.94,8.87C170.6,320.34,169.9,325.19,168.76,331.73Z" id="svg_68"/><path class="cls-2" d="M106.89,298.85a93.56,93.56,0,0,1-6.46-7.51c-0.67-.9-1.31-1.84-1.88-2.79a5.23,5.23,0,0,0,2.44-.7c0.64-.64,1.12-4.16,1.12-4.16Z" id="svg_69"/><path class="cls-4" d="M168.76,331.73a6.46,6.46,0,0,1-3.38,1.59c-4.62.62-9.09-4.24-10-10.86s2.16-12.47,6.79-13.09a6.25,6.25,0,0,1,3.37.5c2.94,4.21,4.85,7.43,4.94,8.87C170.6,320.34,169.9,325.19,168.76,331.73Z" id="svg_70"/><path class="cls-4" d="M140.25,390.2H140.2a0.5,0.5,0,0,1-.45-0.55c1.52-14.89,6.41-58.71,6.86-62.7-22.16-16.22-45.45-43.7-45.69-44a0.5,0.5,0,0,1,.76-0.64c0.23,0.28,23.62,27.87,45.74,44a0.5,0.5,0,0,1,.2.46c-0.05.47-5.31,47.45-6.89,63A0.5,0.5,0,0,1,140.25,390.2Z" id="svg_71"/><path class="cls-4" d="M147.76,393.15A21.06,21.06,0,0,1,135,388.55a0.5,0.5,0,0,1,.66-0.75c0.09,0.08,8.95,7.72,19.73,2.57a0.5,0.5,0,1,1,.43.9A18.57,18.57,0,0,1,147.76,393.15Z" id="svg_72"/><polygon class="cls-4" points="44.42 399.15 42.36 404.14 38.41 413.76 31.5 412.61 34.73 402.77 36.79 396.51 44.42 399.15" id="svg_73"/><path class="cls-2" d="M44.42,399.15l-2.06,5a26.19,26.19,0,0,1-7.63-1.37l2.06-6.27Z" id="svg_74"/><path class="cls-1" d="M60.34,436.53H24s0-1.56.35-4.1a59.27,59.27,0,0,1,7.4-22.35,10.25,10.25,0,0,0,8.41,1.62s2.29,5.12,5.12,7.87a14.86,14.86,0,0,1,10,2.88C59.86,426,60.77,433.47,60.34,436.53Z" id="svg_75"/><ellipse class="cls-2" cx="-354.6300048828125" cy="774.1699829101562" rx="4.050000190734863" ry="2.559999942779541" transform="rotate(-76.44999694824219 -385.75,352.85998535156244) " id="svg_76"/><path class="cls-2" d="M40.27,424.41a0.5,0.5,0,0,1-.3-0.1c-4.85-3.62-6.32-11.87-6.38-12.21a0.5,0.5,0,0,1,.41-0.58,0.49,0.49,0,0,1,.58.41c0,0.08,1.47,8.2,6,11.58A0.5,0.5,0,0,1,40.27,424.41Z" id="svg_77"/><path class="cls-2" d="M56.32,421.93c-4.63-3.55-11.06-2.35-11.06-2.35-8.3,3.24-7.58,12.86-7.58,12.86H24.33C24,435,24,436.53,24,436.53H60.34C60.77,433.47,60.95,425.48,56.32,421.93Z" id="svg_78"/><path class="cls-5" d="M105.88,264s-4,21.31-4.89,23.87a10.71,10.71,0,0,1-4.08.78c-5.12,23.44-13.34,55.64-14,58.23-1,3.62-30.45,54.85-30.45,54.85-15,3.12-21.23-8.22-21.23-8.22,1-3,21.39-50.84,21.39-50.84s5.88-60,6.73-63.46S69,256.29,78.8,251.32c10.9-5.57,21.75.2,22.14,12.92Z" id="svg_79"/><path class="cls-4" d="M66.88,283.5a14.58,14.58,0,0,1-4-.62,0.5,0.5,0,1,1,.28-1c3.5,1,6.34.69,8.44-.93,4.36-3.37,4.23-11.32,4.22-11.4a0.5,0.5,0,1,1,1,0c0,0.35.15,8.54-4.61,12.21A8.46,8.46,0,0,1,66.88,283.5Z" id="svg_80"/><path class="cls-4" d="M39,392a0.5,0.5,0,0,1-.46-0.7l20-46.89,6.56-61.43a0.49,0.49,0,0,1,.55-0.44,0.5,0.5,0,0,1,.44.55l-6.57,61.5a0.5,0.5,0,0,1,0,.14l-20,47A0.5,0.5,0,0,1,39,392Z" id="svg_81"/><ellipse class="cls-4" cx="-205.63998413085938" cy="679.77001953125" rx="12.079999923706055" ry="8.449999809265137" transform="rotate(-76.83000183105469 -278.3999938964844,336.1499938964845) " id="svg_82"/><path class="cls-4" d="M48.4,398.48c-8.41,0-14-6.63-14.06-6.71a0.5,0.5,0,0,1,.77-0.64c0.07,0.08,6.83,8.08,16.5,6a0.5,0.5,0,0,1,.21,1A16.3,16.3,0,0,1,48.4,398.48Z" id="svg_83"/><path class="cls-4" d="M95.81,289.16H95.29a0.5,0.5,0,0,1-.49-0.51,0.52,0.52,0,0,1,.51-0.49,14,14,0,0,0,5.27-.67c0.95-3.15,4.05-20.37,4.08-20.55a0.5,0.5,0,0,1,1,.18c-0.13.75-3.3,18.34-4.19,20.91a0.5,0.5,0,0,1-.24.28C101.15,288.33,99.53,289.16,95.81,289.16Z" id="svg_84"/><path class="cls-4" d="M96.91,289.13H96.82a0.5,0.5,0,0,1-.4-0.58l4.08-22.09a0.5,0.5,0,0,1,1,.18L97.4,288.72A0.5,0.5,0,0,1,96.91,289.13Z" id="svg_85"/><path class="cls-4" d="M184.8,152.64s4.57-13.34,5.65-14.06c0.91-.61,18.22,0,23.63.18a1.53,1.53,0,0,1,1.47,1.67h0a1.53,1.53,0,0,1-1.24,1.38l-15.1,2.86a1.31,1.31,0,0,0-1,1.76h0a1.31,1.31,0,0,0,1.51.82l2.18-.48,0.5-.82a1.84,1.84,0,0,1,2.42-.67h0a1.84,1.84,0,0,1,.86,2.32l-1,2.43a7.21,7.21,0,0,1-5,4.33l-9.7,2.27Z" id="svg_86"/><path class="cls-1" d="M191.73,161c-3.79,10.24-15.06,40.07-18.35,41.65-1.75.85-9.38-.69-18.13-3.22-11-3.17-23.84-7.89-28.86-11.32-3.75-2.55-5.51-7.21-5.19-11.77,0.43-6.41,5-12.63,13.92-12.59,11.86,0.06,31,10.17,31,10.17l13-19.31a7.17,7.17,0,0,1,9.85-2.06l0.14,0.1A7.12,7.12,0,0,1,191.73,161Z" id="svg_87"/><path class="cls-2" d="M155.25,199.41c-11-3.17-23.84-7.89-28.86-11.32-3.75-2.55-5.51-7.21-5.19-11.77a22.31,22.31,0,0,1,10.56-6.2S143.36,187.43,155.25,199.41Z" id="svg_88"/><path class="cls-2" d="M190.21,161.67h-0.1a0.5,0.5,0,0,1-.39-0.59,5.13,5.13,0,0,0-2.68-5.58,5.47,5.47,0,0,0-6.1.7,0.5,0.5,0,1,1-.69-0.72,6.5,6.5,0,0,1,7.24-.87c4.14,2.07,3.22,6.64,3.21,6.68A0.5,0.5,0,0,1,190.21,161.67Z" id="svg_89"/><path class="cls-2" d="M172.06,190.6a0.5,0.5,0,0,1-.5-0.45,31.35,31.35,0,0,0-5.19-14.81,0.5,0.5,0,1,1,.79-0.61c0.18,0.23,4.43,5.83,5.39,15.32a0.5,0.5,0,0,1-.45.55h-0.05Z" id="svg_90"/><path class="cls-2" d="M66,257.33l-1,6.65s13.14,6.25,35.66,5.77,29.33-4.49,29.33-4.49l-0.48-6.73A126.36,126.36,0,0,1,66,257.33Z" id="svg_91"/><path class="cls-1" d="M93.86,261.33c-0.43.47-.8,8.57-0.4,8.89s12,0.56,12.66-.08,1-8.33.56-8.73S94.82,260.29,93.86,261.33Z" id="svg_92"/><polygon class="cls-5" points="77.19 259.41 75.75 268.14 78.72 268.62 80.08 259.81 77.19 259.41" id="svg_93"/><polygon class="cls-5" points="115.43 260.64 116.24 269.13 119.23 268.79 118.32 260.26 115.43 260.64" id="svg_94"/><path class="cls-1" d="M139.77,243.7c0.48,2.57-5.62,15.38-6.41,16s-8.34,3.53-25,4.81-36.86-2.4-40.07-3.68-8.17-9.46-8.17-12.5c0-1.6.84-5.58,2.4-12.49,1.4-6.27,3.41-15,5.93-26.45,1.39-6.4,2.78-12.39,4.06-17.74,3.55-14.88,6.28-24.81,6.28-24.81,13.06-3.21,34.54-4.73,34.54-4.73l21.79,1.61c13.31,17.14-.32,52.56,0,59.13S139.29,241.14,139.77,243.7Z" id="svg_95"/><path class="cls-2" d="M83.12,195.42s-4.34,27.65-20.6,40.44c1.4-6.27,3.41-15,5.93-26.45,1.39-6.4,2.78-12.39,4.06-17.74A39.71,39.71,0,0,1,83.12,195.42Z" id="svg_96"/><path class="cls-2" d="M140.6,192.78h0a0.5,0.5,0,0,1-.45-0.54c1.11-11.61-.25-20.25-4.15-26.44a0.5,0.5,0,1,1,.85-0.53c4,6.38,5.43,15.24,4.3,27.07A0.5,0.5,0,0,1,140.6,192.78Z" id="svg_97"/><path class="cls-2" d="M110.65,259.39a0.5,0.5,0,0,1-.44-0.73,44.82,44.82,0,0,0,4.63-24.25c-1.21-16.48-1.08-29,.37-37.26a36.69,36.69,0,0,0-1.85-19.26,0.5,0.5,0,0,1,.92-0.4,37.07,37.07,0,0,1,1.92,19.84c-1.44,8.16-1.55,20.62-.35,37a45.81,45.81,0,0,1-4.74,24.79A0.5,0.5,0,0,1,110.65,259.39Z" id="svg_98"/><path class="cls-2" d="M110.61,159.85c-8.55,0-12.26,12.92-7.81,20.55,0,0,3.31-8.23,9.31-8.59s10.16,7.63,10.16,7.63S125.27,159.85,110.61,159.85Z" id="svg_99"/><rect class="cls-1" x="-30.420000076293945" y="178.79998779296875" width="18.170000076293945" height="33.40999984741211" rx="1.340000033378601" ry="1.340000033378601" transform="rotate(-18.700000762939453 -54.549999237060504,19.930000305175785) " id="svg_100"/><rect class="cls-2" x="-33.470001220703125" y="178.88999938964844" width="18.170000076293945" height="33.40999984741211" rx="1.340000033378601" ry="1.340000033378601" transform="rotate(-18.700000762939453 -54.97000122070313,19.1299991607666) " id="svg_101"/><path class="cls-1" d="M83.25,200.84C78,209.37,64.94,220.5,58,226.07a8.67,8.67,0,0,1-10.07.63c-11.87-7.49-21.8-22.37-21.8-22.37,0.12-9.62,7.81-10,7.81-10l15.75,4.57s21.1-31.49,29.09-32C88.53,166.18,91.54,187.25,83.25,200.84Z" id="svg_102"/><path class="cls-2" d="M68.54,217.6a0.5,0.5,0,0,1-.34-0.87c7.08-6.43,12-11.87,14.62-16.15,5.2-8.53,5.57-19.28,3.7-25.66-1-3.49-2.74-6-4.84-7a0.5,0.5,0,0,1,.44-0.9c2.39,1.17,4.25,3.8,5.36,7.63,2.35,8,.79,18.93-3.81,26.46C81,205.46,76,211,68.88,217.47A0.5,0.5,0,0,1,68.54,217.6Z" id="svg_103"/><path class="cls-2" d="M29.2,207.11a0.5,0.5,0,0,1,0-1c2.66,0,4.66-.75,5.94-2.24,2.11-2.46,1.58-6.12,1.58-6.16a0.5,0.5,0,1,1,1-.15c0,0.17.6,4.16-1.81,7C34.42,206.23,32.17,207.11,29.2,207.11Z" id="svg_104"/><path class="cls-2" d="M54.88,215.64l-0.14,0A0.5,0.5,0,0,1,54.4,215c3-10.09-3.61-14.88-3.89-15.07a0.5,0.5,0,0,1,.57-0.82c0.08,0.05,7.47,5.38,4.28,16.18A0.5,0.5,0,0,1,54.88,215.64Z" id="svg_105"/><path class="cls-2" d="M34.17,196.57a7.18,7.18,0,0,1-5.26,7.24,12.7,12.7,0,0,1-2.76.52,14.71,14.71,0,0,1,.33-3,8.44,8.44,0,0,1,5.16-6.39,7.77,7.77,0,0,1,2.32-.58A10.3,10.3,0,0,1,34.17,196.57Z" id="svg_106"/><path class="cls-4" d="M34.17,196.57a7.18,7.18,0,0,1-5.26,7.24l-2.43-2.49-3.39-3.49,3.73-6.07,4.83,3.16Z" id="svg_107"/><path class="cls-4" d="M16.76,172.92l13.77-5.37a1.41,1.41,0,0,1,1.81.75h0a1.41,1.41,0,0,1-.53,1.75l-10.15,6.4,0.48,1,11-5.08A1.41,1.41,0,0,1,35,173h0a1.41,1.41,0,0,1-.44,1.78l-10.37,7.35,0.6,0.9,9.78-4.86a1.32,1.32,0,0,1,1.72.51h0a1.32,1.32,0,0,1-.32,1.7l-9,7.1,0.66,1L34,183.83a1.32,1.32,0,0,1,1.85.28h0a1.32,1.32,0,0,1,0,1.5l-5.43,8.3a7.16,7.16,0,0,1-4,3l-3.32.95a21.14,21.14,0,0,1-8.65-22.18A3.76,3.76,0,0,1,16.76,172.92Z" id="svg_108"/><path class="cls-2" d="M28.28,195.41l-0.14,0c-2.48-.72-2.73-1.82-2.79-3.07,0-.87-0.07-1.55-1.78-2.19-2.79-1-2.72-2.61-2.67-3.88a2.29,2.29,0,0,0-1.32-2.64,3,3,0,0,1-1.68-3.54c0.1-.92.12-1.42-0.55-1.85a3.07,3.07,0,0,1-1.13-4.12,0.5,0.5,0,0,1,.88.47,2.08,2.08,0,0,0,.79,2.81,2.54,2.54,0,0,1,1,2.79c-0.11,1-.19,1.82,1.16,2.55a3.25,3.25,0,0,1,1.84,3.56c-0.05,1.23-.09,2.11,2,2.9,2.33,0.87,2.38,2.1,2.42,3.08s0.07,1.58,2.07,2.15A0.5,0.5,0,0,1,28.28,195.41Z" id="svg_109"/><path class="cls-4" d="M115.37,149.67v13.7a3.26,3.26,0,0,1-3.61,3,5.74,5.74,0,0,1-4.73-3l1.64-11.64,0.28-2h6.41Z" id="svg_110"/><path class="cls-2" d="M115.37,149.67v7.47a7.83,7.83,0,0,1-6.69-5.49l0.28-2h6.41Z" id="svg_111"/><path class="cls-4" d="M106.12,137.78s0.16,9.45,1.2,11.78,11.38,5.37,13.7,4.17,4.49-17.55,2.8-23.4S105.56,125.92,106.12,137.78Z" id="svg_112"/><path class="cls-2" d="M130.72,131.29c-1-3.12,2.64-13.06-5.45-13.86-5.56-.55-13.06,4.12-17.2,7.1,4.43-4.83,3.52-9.72.05-8C104,118.63,105,126.88,105,126.88c-1.44-6-8.41-9.62-9-5.85-0.37,2.51,3.64,4.49,6.35,5.53-2.74-.1-6.75.51-7.47,4.81-1.12,6.65,6.65,11.38,10.82,13.3l2.8,0.08L108,141.22s4.41,0.16,3.61-5.93c0,0,17.39,9.29,23.88-1.2C135.45,134.09,131.76,134.41,130.72,131.29Z" id="svg_113"/><path class="cls-4" d="M107.4,143.79s-2.72-6.81-8.49-4.57-1,14.66,8.65,7.53Z" id="svg_114"/><path class="cls-2" d="M105.63,146.33a0.5,0.5,0,0,1-.46-0.29s-2-4.37-5.76-4.75a0.5,0.5,0,0,1-.45-0.55,0.51,0.51,0,0,1,.55-0.45c4.32,0.43,6.48,5.13,6.57,5.33a0.5,0.5,0,0,1-.25.66A0.49,0.49,0,0,1,105.63,146.33Z" id="svg_115"/><path class="cls-2" d="M102.17,145.73a0.5,0.5,0,0,1-.5-0.46,6.06,6.06,0,0,1,.86-3.17,0.5,0.5,0,1,1,.87.49,5.19,5.19,0,0,0-.73,2.6,0.5,0.5,0,0,1-.46.53h0Z" id="svg_116"/><path class="cls-2" d="M111.68,140.24s1.36-2.79,3.48-1.74a0.69,0.69,0,0,1,.61-0.65c0.55,0,.62,1.71.62,1.71A12,12,0,0,0,111.68,140.24Z" id="svg_117"/><path class="cls-2" d="M123.58,141.5s-0.19-2.84-1.82-2a0.65,0.65,0,0,0-.4-0.58c-0.62-.1-0.73,1.53-0.73,1.53A5,5,0,0,1,123.58,141.5Z" id="svg_118"/><ellipse class="cls-2" cx="82.9800033569336" cy="397.989990234375" rx="1.440000057220459" ry="1.1699999570846558" transform="rotate(-88.52999877929688 -31.709999084472674,254.47999572753906) " id="svg_119"/><circle class="cls-6" cx="84.0199966430664" cy="397.260009765625" r="0.3100000023841858" transform="rotate(-88.52999877929688 -30.940000534057656,254.25999450683594) " id="svg_120"/><ellipse class="cls-2" cx="96.37999725341797" cy="405.2200012207031" rx="1.440000057220459" ry="1.1699999570846558" transform="rotate(-88.52999877929688 -25.190000534057667,261.5299987792968) " id="svg_121"/><circle class="cls-6" cx="97.41999816894531" cy="404.489990234375" r="0.3100000023841858" transform="rotate(-88.52999877929688 -24.42000007629395,261.30999755859375) " id="svg_122"/><path class="cls-2" d="M118.64,148.61a3,3,0,0,1-.78-0.1,0.5,0.5,0,0,1,.27-1s1.15,0.3,1.44-.4a0.23,0.23,0,0,0,0-.17,1.83,1.83,0,0,0-1.12-.34,0.5,0.5,0,0,1-.48-0.51L118,143.3a0.5,0.5,0,0,1,.5-0.49h0a0.5,0.5,0,0,1,.49.51l0,2.36a2.1,2.1,0,0,1,1.44.75,1.13,1.13,0,0,1,.06,1.1A1.87,1.87,0,0,1,118.64,148.61Z" id="svg_123"/><path class="cls-6" d="M118.76,151.12s-3.1,2-5.08-1.8Z" id="svg_124"/><circle class="cls-6" cx="519.9100341796875" cy="657.4400024414062" r="0.28999999165534973" transform="rotate(-84.83000183105469 164.7700042724609,498.4100036621094) " id="svg_184"/><path class="cls-6" d="M350.7,166.21s2.68,2.23,5-1.14Z" id="svg_188"/></g></svg>